<?xml version="1.0" encoding="utf-8"?>
<!-- Generator: Adobe Illustrator 24.0.1, SVG Export Plug-In . SVG Version: 6.00 Build 0)  -->
<svg version="1.1" xmlns="http://www.w3.org/2000/svg" xmlns:xlink="http://www.w3.org/1999/xlink" x="0px" y="0px"
	 viewBox="0 0 1826.16 1417.44" style="enable-background:new 0 0 1826.16 1417.44;" xml:space="preserve">
<style type="text/css">
	.st0{fill:#27405A;}
</style>
<g id="Agrupar_1_cópia_1_">
	<g id="Pró_IG_xA0_Imagem_1_">
	</g>
	<g id="Pró_IG_1_">
	</g>
	<g id="Camada_1_copiar_xA0_Imagem_1_">
	</g>
	<g id="Camada_3_xA0_Imagem_1_">
	</g>
</g>
<g id="Camada_1_xA0_Imagem_1_">
	<g>
		<path class="st0" d="M1263.48,831.58c-0.12,0.78-0.35,1.55-0.36,2.33c-0.18,12.34-1.76,24.53-3.85,36.67
			c-3.98,23.18-10.57,45.61-20.18,67.06c-31.24,69.75-81.64,120.66-151.06,152.64c-23.06,10.62-47.24,17.72-72.27,21.89
			c-15.17,2.53-30.45,3.92-45.83,3.95c-37.04,0.07-74.07,0.16-111.11,0c-58.72-0.26-112.86-16.29-161.78-48.75
			c-58.74-38.98-98.96-92.25-120.57-159.42c-5.25-16.31-8.91-33-10.95-50.02c-0.83-6.98-1.29-14-1.98-20.99
			c-0.19-1.96-0.57-3.9-0.86-5.85c0-147.33,0-294.66,0-441.99c0.29-2.04,0.66-4.08,0.86-6.13c0.68-6.99,1.14-14.01,1.96-20.99
			c2-16.94,5.74-33.52,10.83-49.8c29.1-93.09,102.71-166.48,195.9-195.39c16.14-5.01,32.6-8.57,49.35-10.73
			c9.52-1.22,19.07-2.09,28.68-2.15c0.78-0.01,1.56-0.23,2.34-0.35c40.48,0,80.96,0,121.44,0c0.78,0.12,1.56,0.34,2.34,0.35
			c11.37,0.14,22.66,1.28,33.9,2.9c19.04,2.75,37.67,7.22,55.71,13.86c74.73,27.48,130.36,76.71,166.52,147.57
			c18.88,36.99,29.17,76.43,30.61,118.06c0.02,0.62,0.23,1.23,0.36,1.85C1263.48,535.96,1263.48,683.77,1263.48,831.58z
			 M1229.51,610.02C1229.51,610.02,1229.51,610.02,1229.51,610.02c0.01-69.42,0-138.85,0.01-208.27c0-8.24-0.24-16.46-0.95-24.67
			c-0.97-11.16-2.56-22.23-5.04-33.14c-12.9-56.82-41.3-104.54-85.46-142.48c-49.44-42.47-107.09-63.55-172.3-63.71
			c-34.96-0.09-69.92-0.01-104.88-0.02c-11.05,0-22.07,0.56-33.04,1.9c-19.99,2.44-39.46,7.09-58.37,14.05
			C667.72,191.16,596.93,289.02,597.1,400.33c0.21,139.73,0.06,279.46,0.04,419.19c0,9.36,0.46,18.69,1.43,28.01
			c1.22,11.7,3.12,23.29,6.06,34.67c17.8,68.81,56.79,122.37,116.79,160.32c42.19,26.68,88.62,39.48,138.53,39.56
			c34.8,0.05,69.6,0,104.4,0.02c9.76,0,19.5-0.41,29.22-1.36c14.51-1.42,28.8-4.06,42.84-7.94
			c81.05-22.43,146.79-82.42,176.48-161.1c10.91-28.92,16.57-58.86,16.59-89.79C1229.54,751.27,1229.51,680.64,1229.51,610.02z"/>
		<path class="st0" d="M1059,1313.88c-1.15-0.31-2.29-0.66-3.45-0.92c-12.85-2.81-24.8-12.53-26.35-29.17
			c-0.5-5.33-0.78-10.69-0.81-16.04c-0.1-15.59-0.1-31.18,0-46.78c0.05-7.51,0.34-15.02,1.72-22.44c0.8-4.28,2.65-8.02,5.47-11.29
			c6.2-7.22,14.06-11.48,23.44-12.84c8.65-1.26,17.23-0.84,25.63,1.75c5.43,1.67,10.22,4.51,14.45,8.28
			c3.97,3.55,6.75,7.84,8.1,13.04c2.43,9.31,2.35,18.8,2.23,28.45c-11.62,0-23.1,0-34.89,0c0-0.89,0.01-1.74,0-2.6
			c-0.05-5.68-0.06-11.35-0.17-17.03c-0.04-1.91-0.24-3.83-0.55-5.72c-0.43-2.65-1.94-3.86-4.61-3.95c-2.87-0.1-4.53,0.94-5.07,3.66
			c-0.46,2.34-0.72,4.75-0.75,7.13c-0.11,7.03-0.07,14.07-0.07,21.11c-0.01,15.75-0.02,31.5,0.02,47.26
			c0.01,2.95,0.25,5.9,0.42,8.85c0.04,0.71,0.2,1.42,0.37,2.12c0.7,2.74,2.07,3.95,4.59,4.08c2.8,0.15,4.74-0.99,5.62-3.51
			c0.47-1.34,0.86-2.79,0.9-4.2c0.21-7.67,0.3-15.34,0.42-23.01c0-0.22-0.13-0.44-0.25-0.84c-2.12,0-4.25,0-6.32,0
			c-0.56-1.85-0.67-17.52-0.16-20.29c13.37,0,26.78,0,40.18,0c0.46,1.68,0.58,68.84,0.11,71.71c-7.14,0-14.31,0-21.68,0
			c-1.03-2.97-2.07-5.96-3.2-9.2c-0.53,0.68-0.93,1.14-1.27,1.64c-3.58,5.26-8.38,8.7-14.67,9.97c-0.76,0.15-1.47,0.52-2.2,0.79
			C1063.8,1313.88,1061.4,1313.88,1059,1313.88z"/>
		<path class="st0" d="M752.3,1310.64c-11.68,0-23.16,0-34.81,0c0-44.66,0-89.24,0-133.96c0.54-0.08,1.07-0.23,1.6-0.23
			c13.92,0.05,27.84,0.03,41.75,0.23c5.52,0.08,10.98,0.93,16.23,2.82c8.52,3.06,13.27,9.18,14.53,18
			c0.54,3.79,0.84,7.63,0.93,11.46c0.15,6.63,0.21,13.28,0,19.91c-0.13,3.97-0.65,7.96-1.36,11.88c-1.02,5.66-4.47,9.61-9.53,12.2
			c-5.32,2.73-11.07,3.58-16.94,3.78c-3.99,0.13-7.99,0.03-12.3,0.03c-0.19,2.65-0.07,5.18-0.09,7.7c-0.02,2.56,0,5.12,0,7.68
			c0,2.56,0,5.12,0,7.68c0,2.56,0,5.12,0,7.68s0,5.12,0,7.68c0,2.56,0,5.12,0,7.68C752.3,1305.39,752.3,1307.94,752.3,1310.64z
			 M752.41,1233.81c1.93-0.12,3.67-0.12,5.37-0.37c2.75-0.41,4.42-2.12,4.96-4.82c0.31-1.56,0.56-3.15,0.58-4.74
			c0.08-5.02,0.08-10.05,0.01-15.07c-0.02-1.5-0.28-3.02-0.61-4.49c-0.32-1.43-1-2.73-2.38-3.43c-2.47-1.27-5.1-1.53-7.92-1.17
			C752.41,1211.01,752.41,1222.15,752.41,1233.81z"/>
		<path class="st0" d="M938.52,1254.46c-0.17,7.91-0.24,15.83-0.54,23.74c-0.12,3.26-0.4,6.58-1.17,9.74
			c-3.1,12.71-11.26,20.54-23.95,23.4c-9.98,2.25-20.01,1.85-29.93-0.65c-11.84-2.99-18.21-10.99-20.17-22.68
			c-0.74-4.39-1.06-8.9-1.1-13.36c-0.12-13.03-0.12-26.06,0.09-39.09c0.07-4.13,0.69-8.29,1.51-12.35
			c2.25-11.17,9.07-18.61,19.79-22.05c12.2-3.92,24.46-3.49,36.35,1.48c9.04,3.78,14.89,10.6,17.5,20.04
			c1.37,4.96,1.36,10.13,1.45,15.24c0.09,5.52,0.02,11.03,0.02,16.55C938.41,1254.45,938.47,1254.46,938.52,1254.46z
			 M894.88,1255.59c0.04,0,0.08,0,0.13,0c0,8.32-0.07,16.63,0.04,24.95c0.04,3.18,0.32,6.39,0.8,9.53c0.35,2.25,1.87,3.18,4.14,3.17
			c2.53-0.01,3.96-1.14,4.32-3.87c0.34-2.61,0.5-5.26,0.51-7.89c0.05-13.03,0.02-26.07,0.02-39.1c0-4.56,0.07-9.12-0.05-13.67
			c-0.07-2.55-0.3-5.11-0.76-7.61c-0.39-2.11-1.74-2.88-4.07-2.87c-2.28,0.01-3.61,0.87-4.13,2.88c-0.32,1.23-0.52,2.52-0.54,3.78
			C895.12,1235.12,895.01,1245.36,894.88,1255.59z"/>
		<path class="st0" d="M980.69,1176.58c11.44,0,22.91,0,34.52,0c0,44.73,0,89.31,0,134.07c-11.52,0-22.99,0-34.45,0
			C980.26,1308.83,980.18,1179.06,980.69,1176.58z"/>
		<path class="st0" d="M802.05,1200.74c11.07,0,22.01,0,33.22,0c-0.35,4.32-0.7,8.53-1.04,12.74c0.15,0.07,0.3,0.15,0.45,0.22
			c4.37-8.2,10.39-14.11,20.31-14.96c0,12.87,0,25.55,0,38.52c-0.85,0.07-1.69,0.1-2.52,0.22c-2.61,0.36-5.28,0.47-7.79,1.17
			c-4.88,1.36-8.08,4.49-8.57,9.76c-0.34,3.74-0.67,7.49-0.69,11.24c-0.09,15.99-0.06,31.98-0.08,47.98c0,0.95,0,1.9,0,3.02
			c-11.18,0-22.18,0-33.16,0C801.69,1308.91,801.55,1204.03,802.05,1200.74z"/>
		<path class="st0" d="M928.09,1170.95c-0.74,0.68-1.22,1.17-1.75,1.61c-7.82,6.46-15.65,12.9-23.44,19.4
			c-1.12,0.93-2.23,1.34-3.68,1.32c-4.7-0.07-9.4-0.03-14.41-0.03c0.31-0.71,0.45-1.21,0.71-1.62c4.2-6.51,8.42-13,12.61-19.51
			c0.54-0.84,1.06-1.47,2.23-1.46c8.95,0.05,17.89,0.04,26.84,0.06C927.36,1170.71,927.52,1170.79,928.09,1170.95z"/>
		<path class="st0" d="M943.64,884.35c2.88,1.93,5.59,3.62,8.79,4.5c3.37,0.92,6.73,1.97,9.98,3.24c1.82,0.71,3.49,1.89,5.1,3.04
			c2.72,1.94,5.22,4.2,8.42,5.38c2.02,0.74,4.08,1.35,6.09,2.11c1.11,0.42,2.26,0.86,3.2,1.56c3.16,2.33,6.06,4.94,8.31,8.2
			c1.38,1.99,1.95,4.19,1.7,6.56c-0.06,0.55-0.56,1.05-0.86,1.57c-0.5-0.3-1.04-0.54-1.48-0.91c-0.92-0.75-1.75-1.61-2.68-2.34
			c-0.87-0.68-1.85-0.75-2.95-0.48c-1.38,0.34-2.8,0.63-4.22,0.69c-2.54,0.11-4.88-0.67-6.93-2.2c-2.89-2.15-6.02-3.85-9.37-5.15
			c-1.55-0.6-3.15-1.11-4.77-1.54c-8.16-2.2-16.2-4.93-24.72-5.55c-0.23-0.02-0.47,0.02-0.81,0.04c1.78,1.88,3.57,3.64,5.21,5.53
			c1.74,2,3.05,4.22,3.74,6.86c0.73,2.83,0.05,5.38-1.05,7.87c-0.6,1.37-1.5,2.61-2.37,4.08c0.24,0.11,0.48,0.26,0.73,0.32
			c8.17,2.01,16.43,3.4,24.86,3.57c2.95,0.06,5.84-0.61,8.63-1.58c4.17-1.45,8.5-2,12.86-2.34c1.31-0.1,2.63-0.89,4.24,0.18
			c-0.23,0.94-0.31,2.06-0.78,3c-2.16,4.41-5.5,7.57-10.26,9.06c-3.94,1.23-7.85,2.62-11.86,3.56c-2.91,0.68-5.96,0.8-8.96,1.07
			c-3.56,0.33-7.12,0.58-10.69,0.82c-1.98,0.14-3.97,0.31-5.95,0.25c-1.65-0.05-3.13,0.29-4.62,0.94c-1.45,0.64-2.95,1.14-4.85,1.86
			c1.45,1.1,2.68,2.02,3.89,2.96c4.66,3.62,9.37,7.16,13.93,10.89c2.61,2.14,4.78,4.73,5.99,7.97c1.25,3.36,1.86,6.75,0.11,10.17
			c-0.45,0.87-0.73,1.83-1.11,2.79c-1.37-0.56-1.46-1.49-1.64-2.45c-0.17-0.92-0.46-1.83-0.84-2.69c-0.71-1.63-1.94-2.44-3.8-2.23
			c-2.06,0.24-3.74-0.64-5.17-2.03c-0.69-0.67-1.38-1.35-1.96-2.1c-1.74-2.25-3.82-3.99-6.4-5.25c-4.35-2.13-8.57-4.51-12.91-6.65
			c-1.11-0.55-2.46-0.79-3.71-0.8c-3.31-0.05-5.55-1.57-7.15-4.39c-0.52-0.92-1.37-1.75-2.24-2.37c-1.62-1.15-3.36-2.12-5.06-3.14
			c-1.09-0.66-2.17-0.88-3.56-0.75c-3.78,0.36-9.69-2.98-10.8-7.55c-1.12-4.59-2.74-8.98-5.23-13.02c-0.4-0.66-0.81-1.31-1.35-2.17
			c-0.93,0.73-1.67,1.32-2.41,1.89c-2.34,1.83-4.8,3.39-7.68,4.32c-2.74,0.89-5.19,0.32-7.56-1.01c-0.83-0.46-1.51-1.18-2.33-1.66
			c-1.71-1.02-2.19-2.59-2.32-4.44c-0.23-3.36,2.22-4.77,4.54-6.11c4.01-2.31,8.16-4.37,12.21-6.61c1.79-0.99,3.47-2.18,5.18-3.27
			c-0.48-0.91-0.93-1.07-1.4-0.43c-1.2,1.64-2.97,1.73-4.72,1.72c-1.51-0.01-1.84-0.46-1.55-1.93c0.21-1.1,0.49-2.18,0.79-3.26
			c0.68-2.45,1.44-4.89,2.08-7.35c1.1-4.25,2.12-8.52,3.21-12.78c0.16-0.61,0.58-1.16,0.71-1.77c0.45-2.01,0.89-4.02,1.2-6.05
			c0.14-0.93-0.1-1.92-0.03-2.87c0.34-4.68,0.12-9.35-0.37-14.01c-0.41-3.94-0.59-7.91-1.1-11.84c-0.55-4.25-1.34-8.46-2.06-12.68
			c-0.35-2.03-0.86-4.04-1.13-6.08c-0.38-2.95-1.31-5.71-2.38-8.47c-2.21-5.71-2.33-11.56-0.51-17.35c1.25-4.01,1.3-7.9,0.37-11.97
			c-1.65-7.21-1.46-14.36,1.33-21.35c1.12-2.8,1.6-5.93,3.06-8.52c3.52-6.22,3.57-13.11,4.39-19.84c0.36-2.97,0.19-6.1-0.3-9.06
			c-0.97-5.89,0.1-11.42,1.96-16.96c0.94-2.79,1.6-5.68,2.24-8.56c0.56-2.54,0.32-5.1-0.37-7.59c-0.83-3-2.65-5.26-5.45-6.67
			c-2.74-1.38-5.62-2.43-8.72-2.32c-4.31,0.16-8.61,0.53-12.91,0.83c-7.25,0.5-14.5,1.35-21.76,1.44
			c-9.8,0.12-19.36-1.89-28.84-4.35c-8.96-2.32-18-4.38-26.98-6.62c-1.03-0.26-1.88-0.23-2.71,0.37c-1.03,0.75-2.08,1.48-3.06,2.29
			c-1.23,1.01-1.95,2.3-2,3.93c-0.02,0.56-0.21,1.11-0.19,1.66c0.07,2.01-0.78,3.62-2.32,4.77c-2.74,2.06-3.3,4.76-2.57,7.89
			c0.38,1.63,0.83,3.25,1.21,4.88c0.69,2.96-0.17,4.84-3.03,5.88c-1.28,0.46-1.63,1.2-1.98,2.34c-1.22,3.96-2.48,7.92-3.9,11.81
			c-0.48,1.32-1.37,2.54-2.27,3.64c-1.14,1.4-2.29,1.54-3.79,0.48c-0.97-0.68-1.78-1.59-2.6-2.46c-0.54-0.57-0.97-1.25-1.42-1.84
			c-1.2,2.16-2.21,4.37-3.56,6.35c-2.61,3.82-5.01,3.83-7.96,0.19c-0.8-0.98-1.49-2.06-2.52-3.49c-0.36,1.27-0.62,2.21-0.89,3.14
			c-0.26,0.91-0.54,1.82-0.87,2.94c-1.46,0-2.88,0.1-4.28-0.03c-1.38-0.13-2.03,0.46-2.48,1.68c-1.17,3.23-0.08,6.05,3.17,7.16
			c1.69,0.58,3.58,0.67,5.39,0.81c1.35,0.11,2.72-0.09,4.07-0.07c0.67,0.01,1.34,0.18,2.05,0.29c-0.06,1.54-1.12,1.78-1.95,2.07
			c-3.2,1.11-6.51,1.56-9.9,1.36c-3.79-0.23-7.35-1.42-11.03-2.85c0.29,1.76,0.6,3.35,0.78,4.95c0.16,1.43,0.36,3.02-1.05,3.94
			c-1.39,0.91-2.62-0.2-3.74-0.85c-3.06-1.77-5.8-3.97-8.05-6.74c-0.49-0.6-1.02-1.18-1.63-1.88c-0.39,0.81-0.67,1.47-1.03,2.09
			c-1.1,1.91-2.1,2.25-3.9,1.04c-1.17-0.79-2.14-1.9-3.17-2.89c-0.33-0.31-0.58-0.7-1.17-1.43c0,0.88-0.07,1.31,0.01,1.71
			c0.47,2.36-0.2,4.61-0.67,6.86c-0.63,2.98-0.31,5.87,0.41,8.76c0.42,1.7,0.9,3.39,1.32,5.09c0.2,0.84,0.32,1.69,0.47,2.54
			c-1.52,1.02-2.49,0.17-3.2-0.75c-1.36-1.77-2.56-3.66-3.81-5.52c-0.43-0.63-0.82-1.3-1.54-2.45c-0.28,3.81-0.14,6.99,0.38,10.2
			c0.42,2.58,0.45,5.23,0.63,7.85c0.03,0.39-0.04,0.8-0.15,1.18c-0.44,1.59-1.33,1.98-2.63,0.99c-1.07-0.82-2.03-1.81-2.9-2.84
			c-1.42-1.69-2.73-3.48-4.35-5.57c-0.15,0.8-0.27,1.21-0.3,1.63c-0.17,2.42-0.35,2.57-2.72,1.96c1.87,5.05,4.48,9.57,7.9,13.64
			c5.83,6.95,12.98,12.29,20.68,16.95c0.86,0.52,1.74,1.02,3.11,1.82c-1.94,0.57-3.35,0.57-4.69,0.21c-2.15-0.58-4.32-1.2-6.34-2.11
			c-5.94-2.64-11.61-5.89-16.66-9.9c-3.38-2.68-6.15-6.27-8.78-9.76c-5.88-7.85-9.11-16.78-9.84-26.59
			c-0.23-3.09-0.75-6.18-0.78-9.27c-0.08-8.88,1.74-17.44,4.6-25.81c4.88-14.3,11.9-27.56,19.73-40.43
			c6.03-9.93,12.54-19.52,20.46-28.05c4.29-4.62,8.87-8.99,13.36-13.43c2.27-2.25,4.69-4.36,6.95-6.62
			c6.8-6.79,14.53-12.28,23.21-16.38c4.58-2.16,8.37-5.31,11.8-8.9c4.53-4.73,8.92-9.61,13.35-14.44
			c10.18-11.12,21.25-21.28,33.28-30.35c6.06-4.57,12.34-8.85,18.65-13.07c8.02-5.35,16.81-9.2,25.79-12.63
			c11.58-4.43,23.41-8.08,35.28-11.61c16.08-4.78,32.16-9.54,48.22-14.4c6.28-1.9,12.51-4.05,18.26-7.2
			c8.9-4.87,17.76-9.83,24.97-17.23c5.93-6.08,10.55-13.03,14.51-20.46c4.41-8.27,8.04-16.87,11.16-25.7
			c0.45-1.28,0.58-2.45,0.19-3.72c-0.97-3.17-1.06-6.41-0.71-9.68c0.25-2.36,0.46-4.73,0.91-7.06c0.87-4.43,1.8-8.85,2.88-13.24
			c1.37-5.53,2.88-11.03,4.38-16.53c3.69-13.5,8.18-26.72,13.87-39.52c0.91-2.04,1.83-4.07,2.72-6.12
			c1.61-3.68,3.77-6.99,6.23-10.17c3.66-4.74,6.99-9.73,10.54-14.55c2.7-3.66,5.48-7.26,8.29-10.85c3.48-4.44,8.16-7.35,13.05-9.9
			c4.12-2.15,7.84-4.86,11.61-7.54c2.85-2.02,5.78-4.03,8.93-5.46c2.18-0.99,4.8-1.05,7.24-1.41c2.14-0.31,4.29-0.08,6.34,0.6
			c1.09,0.36,1.99,0.11,3-0.24c2.4-0.82,4.79-1.76,7.27-2.2c4.91-0.88,9.67,0.26,14.31,1.8c1.88,0.62,3.72,1.45,5.44,2.42
			c2.51,1.42,4.41,3.41,4.75,6.48c0.09,0.79,0.32,1.58,0.32,2.37c-0.01,2.33,1.3,3.79,3,5.15c2.55,2.04,5.04,4.18,7.45,6.4
			c2.02,1.86,3.57,4.11,4.54,6.69c0.33,0.89,0.55,1.84,0.67,2.78c0.12,0.85-0.42,1.54-1.25,1.33c-1.47-0.37-2.56,0.25-3.81,0.82
			c-0.97,0.44-2.18,0.39-3.29,0.48c-2.55,0.19-5.1,0.4-7.65,0.48c-1.94,0.06-3.01,1.03-3.72,2.78c-1.88,4.62-3.41,9.32-3.2,14.39
			c0.29,6.97-1.37,13.63-3.06,20.3c-0.97,3.82-2.45,7.46-4.53,10.79c-4.35,6.97-7.29,14.56-10.11,22.22
			c-1.21,3.3-2.64,6.52-4.06,9.73c-1.46,3.32-3.93,5.8-6.85,7.86c-4.63,3.26-9.84,5.28-15.15,7.06c-0.23,0.08-0.46,0.13-0.7,0.18
			c-1.84,0.39-2.89,1.43-3.7,3.23c-3.37,7.51-7,14.89-10.46,22.36c-2.62,5.67-5.67,11.08-9.22,16.24c-1.89,2.75-3.35,5.81-4.82,8.81
			c-3.19,6.53-6.39,13.07-9.36,19.7c-3.2,7.15-5.99,14.46-7.81,22.12c-1.3,5.49-1.68,11.05-1.6,16.65
			c0.07,4.79,0.19,9.59,0.53,14.37c0.53,7.52-1.96,13.88-7.23,19.09c-3.66,3.63-5.26,8.07-6.2,12.93c-0.55,2.82-1.18,5.62-1.9,8.4
			c-1.5,5.74-4.72,10.52-8.86,14.6c-9.77,9.61-17.32,20.9-25.01,32.12c-6.33,9.23-11.42,19.04-15.1,29.6
			c-1.31,3.77-2.82,7.48-4.09,11.27c-2.42,7.22-6.28,13.62-10.84,19.64c-1.55,2.05-2.68,4.26-3.61,6.68
			c-1.61,4.16-3.46,8.26-5.6,12.18c-2.37,4.34-5.14,8.47-7.8,12.65c-3.68,5.8-7.35,11.62-11.17,17.33
			c-1.55,2.31-3.32,4.54-5.31,6.48c-3.03,2.96-4.7,6.62-6.05,10.48c-1.18,3.38-1.4,7.06-3.28,10.24c-0.29,0.49-0.11,1.25-0.17,1.88
			c-0.4,4.36-0.68,8.74-1.27,13.08c-0.25,1.86-1.04,3.69-1.79,5.44c-2.85,6.62-3.86,13.64-4.66,20.71
			c-0.67,5.95-1.29,11.91-1.75,17.88c-0.25,3.18-0.15,6.39-0.15,9.58c0,2.86-0.11,5.73,0.18,8.56c0.42,4.17,0.86,8.38,1.84,12.44
			c1.09,4.54,2.67,8.98,4.28,13.37c0.67,1.83,1.83,3.54,3.04,5.1c1.6,2.07,3.97,2.32,6.32,1.67c2.67-0.74,5.3-1.68,7.89-2.68
			c3.51-1.35,7.05-1.07,10.62-0.48c0.83,0.14,1.19,0.62,1.36,1.43c0.57,2.69-0.51,4.86-2.18,6.78
			C945.74,882.83,944.75,883.43,943.64,884.35z M926.9,914.55c-4.13-2.68-7.94-5.14-12.22-7.92c1.42,4.45,2.66,8.34,3.93,12.33
			c2.05,0.31,3.99,0.61,6.13,0.94C924.49,917.73,925.1,916.09,926.9,914.55z"/>
	</g>
</g>
</svg>
